<?xml version="1.0" encoding="UTF-8"?>
<!DOCTYPE svg PUBLIC "-//W3C//DTD SVG 1.1//EN" "http://www.w3.org/Graphics/SVG/1.1/DTD/svg11.dtd">
<!-- Creator: CorelDRAW -->
<svg xmlns="http://www.w3.org/2000/svg" xml:space="preserve" width="200px" height="355px" style="shape-rendering:geometricPrecision; text-rendering:geometricPrecision; image-rendering:optimizeQuality; fill-rule:evenodd; clip-rule:evenodd"
viewBox="0 0 29.429 52.17"
 xmlns:xlink="http://www.w3.org/1999/xlink">
 <defs>
  <style type="text/css">
   <![CDATA[
    .fil0 {fill:#f1aa0b}
   ]]>
  </style>
 </defs>
 <g id="Layer_x0020_1">
  <metadata id="CorelCorpID_0Corel-Layer"/>
  <path class="fil0" d="M26.7537 43.4353l0.550819 0c0.0524687,0.0994251 0.157406,0.260302 0.157406,0.393413 0,1.48117 -0.0806425,1.22617 -0.617375,2.04648l-0.103508 3.06176 -0.616966 1.18677 -0.393413 0c-0.362585,0 -0.901767,-0.865427 -1.41625,-0.865427l-0.236211 0c-0.300317,0 -1.90112,1.88846 -2.67529,1.88846l-0.944232 0c-0.257444,0 -0.207221,-0.236007 -0.629624,-0.236007l-1.25884 0c-0.102283,0 -0.590017,0.354623 -0.738236,0.442003 -0.306237,0.180884 -0.638811,0.185784 -0.998947,0.259894 -0.387492,0.0798259 -0.702305,0.0634932 -1.07061,0.188642 -0.200075,0.0679847 -0.312566,0.0481814 -0.532649,0.096771 -0.160673,0.0355235 -0.411787,0.194767 -0.43792,0.209671l-1.56569 -0.0912588 -0.0853382 0.153119 -0.550819 0 -0.319099 -0.0769677 -0.0745178 -0.23764 -0.786826 0c-0.222124,0 -0.303583,-0.18068 -0.393413,-0.314812 0,-0.697813 -0.238253,-0.919733 -0.238049,-1.65062 0.000408317,-0.989964 0.0835007,-1.02487 -0.92647,-1.04059l-0.126782 -0.144748 -0.20375 -2.67223 0 -0.0786009c0,-0.158427 0.310116,-0.460173 0.389126,-0.869919 0.0240907,-0.124128 0.0690055,-0.411175 0.118003,-0.511621 0.0681889,-0.13944 0.279697,-0.253973 0.279697,-0.349519 0,-0.950153 -1.10164,-2.41499 -1.10164,-2.7541l0 -0.550819c0,-0.273368 0.157406,-0.120045 0.157406,-0.393413l0 -0.472218c0,-0.118616 -0.472014,-0.651265 -0.472014,-1.41645l0 -0.786826c0.10065,-0.0267447 0.62942,-0.310933 0.62942,-0.393413 0,-0.33339 -0.684747,-0.944232 -1.18024,-0.944232 -0.641261,0 -0.951378,0.236007 -1.41645,0.236007l-0.472014 0c-0.150873,-0.564498 -0.449352,-0.708021 -1.18106,-0.707204l-0.313995 -0.158223 0 -0.944232c0,-0.376468 -0.0892172,-0.488755 -0.236211,-0.708225 0,-1.60264 -0.390555,-1.02202 -0.865427,-1.73106 0,-0.769677 -0.0265406,-0.725987 -0.175576,-1.31968 -0.13699,-0.545103 0.162714,-1.07489 -0.375243,-1.11981 0,0.564906 -0.0777843,0.834191 -0.550819,0.944436l0 0.550615c0,0.493042 -0.521829,0.633503 -0.753957,1.05591 -0.207221,0.376876 -0.231311,1.06877 -0.741095,1.06877l-0.393413 0c-0.284393,0 -0.386676,-0.247236 -0.393617,-0.550819 -0.209466,-0.0559394 -0.472014,-0.221103 -0.472014,-0.472218l0 -0.236007c0,-0.649428 0.411991,-0.835212 0.820512,-1.14655 0.146586,-0.111879 0.595938,-1.33887 0.595938,-1.37133 0,-0.285822 -0.314812,-0.292355 -0.314812,-0.629624 0,-0.747424 0.864406,-1.49566 1.18024,-1.96707 -0.555719,0 -0.641465,0.113716 -0.549186,-0.310525l-0.23764 0.0743136 0 -0.472014c0,-0.26806 0.865631,-0.959544 0.865631,-1.02304 0,-0.241315 -0.194155,-0.340128 -0.393413,-0.393413l0 -0.786826c0.17823,-0.0475689 0.314608,-0.0757427 0.314608,-0.314812l0 -0.157406c0,-0.342578 -0.472014,-0.372793 -0.472014,-0.786826 0,-0.848482 0.708225,-0.863998 0.708225,-1.25884l0 -0.314812 -0.157406 0 0 -0.472218c0,-0.359931 0.0467522,-0.865427 0.393413,-0.865427l0.393413 0c-0.0443024,-0.531832 -0.62942,-0.592672 -0.62942,-1.10164l0 -0.393413c0,-0.510396 0.472014,-0.523666 0.472014,-1.02304 0,-0.69965 -1.10164,-1.13859 -1.10164,-2.04587l0 -0.865631c0,-0.277247 0.314812,-0.316854 0.314812,-0.472014 0,-0.479364 -0.518358,-0.896867 -0.685768,-1.18248l-0.101058 -1.09939c0.125762,-0.188234 0.393413,-0.35054 0.393413,-0.550819 0,-0.191909 -0.248665,-0.364627 -0.251319,-0.474056l0.0939128 -0.942395 -0.157406 0 0 -0.786826c0.287455,-0.104121 0.475281,-1.95686 0.47181,-2.51829 -0.0100038,-1.6102 1.25925,-0.712104 1.25925,-1.73085l-0.0363402 -0.0732928 -0.278268 -2.36599 0 -1.65246c0,-0.273368 0.13944,-0.110654 0.236007,-0.472014l2.04587 0c0.53122,0 0.658615,-0.223962 0.944232,-0.472218l4.64256 0 2.41376 0.723129 0.0255198 -0.0937087c0.0971793,0.145157 0.229066,0.314812 0.472218,0.314812 0.150465,0 0.0534895,-0.157406 0.314608,-0.157406l0.472218 0c0.45956,0 0.497942,0.393413 0.944232,0.393413 0.271326,0 0.483447,-0.314608 0.865427,-0.314608l0.472218 0c0.347069,0 1.53792,0.219266 2.04832,0.239682 0.65984,0.0265406 1.30784,-0.554494 1.72861,-0.554494l0.708225 0c1.5565,0 2.98663,2.8327 4.79997,2.8327 0.364014,0.243765 0.592263,0.496309 0.754773,0.976489 0.0859506,0.254381 0.504271,1.19616 0.504271,1.22679l0 0.708225c0,0.180884 -0.169656,0.569806 -0.236211,0.708225l-0.0426691 0.0961586 0.869306 0.385247 0.0389942 -0.0879922c0.707613,0.473851 0.401988,1.31396 1.49505,2.04587l0 0.944232c-0.313995,0.451802 -0.194155,1.77271 -0.68638,2.30372 -0.484263,0.522237 -1.3107,0.796626 -1.3601,1.6298 -0.0302154,0.507742 -0.0641057,0.858281 -0.184151,1.3109 -0.096771,0.364831 -0.459764,0.550002 -0.667802,0.827454 -0.474668,0.633299 -0.482222,1.7968 -1.27191,1.7968l-0.157406 0c-0.222328,0 -0.303583,-0.180476 -0.393413,-0.314812 0,-1.15982 -0.173943,-1.33887 -0.550819,-2.12447l-0.314812 0 0 0.236007c0,0.552657 -0.14434,1.44136 -0.032257,1.84212 0.117595,0.421179 0.347069,1.23414 0.347069,1.6988l0 0.393413c0,0.490592 -0.393413,0.537957 -0.78703,0.629624l0 0.393413c0,0.205179 0.708225,0.666985 0.708225,1.02283l0 0.236211c0,0.487734 -0.380347,0.501413 -0.273776,1.05387 0.0875839,0.453436 0.195175,0.732112 0.195175,1.22801l0 0.62942c0,0.362993 -0.314812,0.662902 -0.314812,1.18044l0 1.96707c0,0.826637 0.225391,2.64446 0.524279,3.17405 0.22927,0.406479 0.970773,2.28657 0.970773,2.80616l0 0.708225c0,0.503863 -0.348294,0.482834 -0.550819,0.865631l-0.281534 0.0461398 -0.426691 0.268468c0.22192,0.83072 1.88867,1.29396 1.88867,2.04587l0 0.472218c0,0.446903 -1.65246,0.86359 -1.65246,1.18024 0,0.242948 0.236007,0.179455 0.236007,0.865631 0.352173,0.186397 0.431999,0.26316 0.645957,0.613087 0.387492,0.633503 0.298071,0.201708 0.678418,0.580626 0.53714,0.535303 0.033482,0.8101 1.03631,1.48158z"/>
 </g>
</svg>
